<?xml version="1.0" encoding="UTF-8" standalone="no"?>
<!-- Created with Inkscape (http://www.inkscape.org/) -->

<svg
   xmlns:dc="http://purl.org/dc/elements/1.1/"
   xmlns:cc="http://creativecommons.org/ns#"
   xmlns:rdf="http://www.w3.org/1999/02/22-rdf-syntax-ns#"
   xmlns:svg="http://www.w3.org/2000/svg"
   xmlns="http://www.w3.org/2000/svg"
   xmlns:sodipodi="http://sodipodi.sourceforge.net/DTD/sodipodi-0.dtd"
   xmlns:inkscape="http://www.inkscape.org/namespaces/inkscape"
   width="744.09448"
   height="500"
   id="svg2"
   version="1.1"
   inkscape:version="0.91 r13725"
   sodipodi:docname="logo_fnorden.svg">
  <defs
     id="defs4" />
  <sodipodi:namedview
     id="base"
     pagecolor="#ffffff"
     bordercolor="#666666"
     borderopacity="1.0"
     inkscape:pageopacity="0.0"
     inkscape:pageshadow="2"
     inkscape:zoom="1.1079836"
     inkscape:cx="297.93627"
     inkscape:cy="262.20246"
     inkscape:document-units="px"
     inkscape:current-layer="layer1"
     showgrid="false"
     inkscape:window-width="1918"
     inkscape:window-height="1059"
     inkscape:window-x="0"
     inkscape:window-y="19"
     inkscape:window-maximized="1"
     units="px" />
  <metadata
     id="metadata7">
    <rdf:RDF>
      <cc:Work
         rdf:about="">
        <dc:format>image/svg+xml</dc:format>
        <dc:type
           rdf:resource="http://purl.org/dc/dcmitype/StillImage" />
        <dc:title></dc:title>
      </cc:Work>
    </rdf:RDF>
  </metadata>
  <g
     inkscape:label="Ebene 1"
     inkscape:groupmode="layer"
     id="layer1"
     transform="translate(0,-552.36218)">
    <g
       transform="matrix(0.87543673,0,0,1.142287,8,55.16065)"
       style="font-style:normal;font-variant:normal;font-weight:bold;font-stretch:normal;font-size:132.54351807px;line-height:125%;font-family:Sawasdee;-inkscape-font-specification:'Sawasdee Bold';letter-spacing:0px;word-spacing:0px;fill:#f74c00;fill-opacity:1;stroke:none"
       id="text3068"
       inkscape:export-filename="/home/infin/work/fnorden/Logo/Logo_03.png"
       inkscape:export-xdpi="90"
       inkscape:export-ydpi="90">
      <path
         style="font-family:Sans;-inkscape-font-specification:'Sans Bold';fill:#f74c00;stroke:none;fill-opacity:1"
         d="m 92.5625,816.90625 -50.9375,110.375 24.34375,0 19.78125,-46.8125 41.75,0 0,-21.5 -32.65625,0 8.6875,-20.5625 26.15625,0 0,-21.5 -17.0625,0 z"
         transform="scale(1.142287,0.87543673)"
         id="path3896"
         inkscape:connector-curvature="0"
         sodipodi:nodetypes="cccccccccccc" />
      <path
         d="m 171.51388,715.14223 27.82896,0 35.14216,66.27175 0,-66.27175 23.62226,0 0,96.62474 -27.82897,0 -35.14215,-66.27176 0,66.27176 -23.62226,0 0,-96.62474"
         style="font-family:Sans;-inkscape-font-specification:'Sans Bold';fill:#f74c00;stroke:none;fill-opacity:1"
         id="path3898"
         inkscape:connector-curvature="0" />
      <path
         d="m 326.70888,731.45129 c -7.59369,8e-5 -13.48307,2.80455 -17.66816,8.41341 -4.18516,5.609 -6.27772,13.50465 -6.27769,23.68697 -3e-5,10.13928 2.09253,18.01335 6.27769,23.62226 4.18509,5.60896 10.07447,8.41343 17.66816,8.41341 7.63672,2e-5 13.54767,-2.80445 17.73287,-8.41341 4.18505,-5.60891 6.27762,-13.48298 6.2777,-23.62226 -8e-5,-10.18232 -2.09265,-18.07797 -6.2777,-23.68697 -4.1852,-5.60886 -10.09615,-8.41333 -17.73287,-8.41341 m 0,-18.05646 c 15.53237,9e-5 27.69944,4.44409 36.50124,13.33201 8.80162,8.88808 13.20247,21.16302 13.20258,36.82483 -1.1e-4,15.61877 -4.40096,27.87213 -13.20258,36.76012 -8.8018,8.88801 -20.96887,13.33201 -36.50124,13.33201 -15.48934,0 -27.65641,-4.444 -36.50124,-13.33201 -8.80173,-8.88799 -13.20259,-21.14135 -13.20258,-36.76012 -1e-5,-15.66181 4.40085,-27.93675 13.20258,-36.82483 8.84483,-8.88792 21.0119,-13.33192 36.50124,-13.33201"
         style="font-family:Sans;-inkscape-font-specification:'Sans Bold';fill:#f74c00;stroke:none;fill-opacity:1"
         id="path3900"
         inkscape:connector-curvature="0" />
      <path
         d="m 430.58209,757.98588 c 5.22058,6e-5 8.95267,-0.97072 11.19631,-2.91233 2.28666,-1.9415 3.43002,-5.13427 3.43008,-9.57834 -6e-5,-4.40079 -1.14342,-7.55042 -3.43008,-9.4489 -2.24364,-1.89834 -5.97573,-2.84754 -11.19631,-2.84762 l -10.4844,0 0,24.78719 10.4844,0 m -10.4844,17.21513 0,36.56596 -24.91662,0 0,-96.62474 38.05448,0 c 12.72791,9e-5 22.04737,2.1358 27.9584,6.40713 5.95402,4.27151 8.93107,11.0238 8.93116,20.25689 -9e-5,6.38563 -1.55333,11.62782 -4.65974,15.7266 -3.06342,4.09889 -7.70158,7.11909 -13.91448,9.06059 3.40844,0.77667 6.45021,2.54564 9.12531,5.30692 2.7181,2.71822 5.45785,6.8602 8.21925,12.42596 l 13.52617,27.44065 -26.53459,0 -11.77877,-24.01057 c -2.37307,-4.83229 -4.78922,-8.13293 -7.24847,-9.90193 -2.41621,-1.76894 -5.65213,-2.65343 -9.70778,-2.65346 l -7.05432,0"
         style="font-family:Sans;-inkscape-font-specification:'Sans Bold';fill:#f74c00;stroke:none;fill-opacity:1"
         id="path3902"
         inkscape:connector-curvature="0" />
      <path
         d="m 522.09406,733.97531 0,58.95857 8.93116,0 c 10.18232,2e-5 17.94853,-2.524 23.29866,-7.57207 5.39314,-5.04801 8.08974,-12.38277 8.08982,-22.00429 -8e-5,-9.57828 -2.67511,-16.8699 -8.0251,-21.87486 -5.35013,-5.00482 -13.13791,-7.50727 -23.36338,-7.50735 l -8.93116,0 m -24.91663,-18.83308 26.27572,0 c 14.66948,9e-5 25.58532,1.05716 32.74757,3.1712 7.20525,2.07109 13.37507,5.60903 18.50949,10.61384 4.53021,4.35779 7.89557,9.38426 10.09609,15.07941 2.20033,5.69529 3.30054,12.14557 3.30065,19.35084 -1.1e-4,7.29166 -1.10032,13.80665 -3.30065,19.54499 -2.20052,5.69525 -5.56588,10.72172 -10.09609,15.07941 -5.17756,5.00491 -11.39053,8.56443 -18.63893,10.67856 -7.24854,2.07099 -18.12123,3.10649 -32.61813,3.10649 l -26.27572,0 0,-96.62474"
         style="font-family:Sans;-inkscape-font-specification:'Sans Bold';fill:#f74c00;stroke:none;fill-opacity:1"
         id="path3904"
         inkscape:connector-curvature="0" />
      <path
         d="m 607.19892,715.14223 67.24253,0 0,18.83308 -42.3259,0 0,17.99175 39.80188,0 0,18.83309 -39.80188,0 0,22.13373 43.74971,0 0,18.83309 -68.66634,0 0,-96.62474"
         style="font-family:Sans;-inkscape-font-specification:'Sans Bold';fill:#f74c00;stroke:none;fill-opacity:1"
         id="path3906"
         inkscape:connector-curvature="0" />
      <path
         d="m 697.80481,715.14223 27.82897,0 58.76441,96.62474 -27.82896,0 -35.14216,-66.27176 0,66.27176 -23.62226,0 0,-96.62474"
         style="font-family:Sans;-inkscape-font-specification:'Sans Bold';fill:#f74c00;stroke:none;fill-opacity:1"
         id="path3908"
         inkscape:connector-curvature="0"
         sodipodi:nodetypes="cccccccc" />
    </g>
    <path
       style="fill:#f70000;fill-opacity:1;stroke:none"
       d="m 365.21745,773.91905 -5.84099,22.63746 48.20995,0 -5.84099,-22.63746 z m -12.93154,49.98258 -7.03243,27.22888 76.45591,0 -7.03243,-27.22888 z"
       id="rect3859"
       inkscape:connector-curvature="0"
       sodipodi:nodetypes="cccccccccc"
       inkscape:export-filename="/home/infin/work/fnorden/Logo/Logo_03.png"
       inkscape:export-xdpi="90"
       inkscape:export-ydpi="90" />
    <path
       style="color:#000000;font-style:normal;font-variant:normal;font-weight:normal;font-stretch:normal;font-size:medium;line-height:normal;font-family:Sans;-inkscape-font-specification:Sans;text-indent:0;text-align:start;text-decoration:none;text-decoration-line:none;letter-spacing:normal;word-spacing:normal;text-transform:none;direction:ltr;block-progression:tb;writing-mode:lr-tb;baseline-shift:baseline;text-anchor:start;display:inline;overflow:visible;visibility:visible;fill:#f70000;fill-opacity:1;fill-rule:nonzero;stroke:none;stroke-width:26.30350876;marker:none;enable-background:accumulate"
       d="m 383.85183,699.66192 c -13.18942,0 -24.0604,10.87098 -24.0604,24.06042 0,13.18943 10.87098,24.0604 24.0604,24.0604 13.18943,0 24.0807,-10.87097 24.0807,-24.0604 0,-13.18944 -10.89127,-24.06042 -24.0807,-24.06042 z"
       id="path3883"
       inkscape:connector-curvature="0"
       sodipodi:nodetypes="sssss"
       inkscape:export-filename="/home/infin/work/fnorden/Logo/Logo_03.png"
       inkscape:export-xdpi="90"
       inkscape:export-ydpi="90" />
    <path
       style="fill:none;stroke:#f74c00;stroke-width:21.29999924;stroke-miterlimit:4;stroke-dasharray:none;stroke-opacity:1"
       d="m 302.0906,816.08523 c -25.76427,-26.31936 -38.64641,-60.81511 -38.64641,-95.31086 -10e-6,-34.49574 12.88212,-68.99149 38.64639,-95.31085"
       id="path4920"
       inkscape:connector-curvature="0"
       sodipodi:nodetypes="csc"
       inkscape:export-filename="/home/infin/work/fnorden/Logo/Logo_03.png"
       inkscape:export-xdpi="90"
       inkscape:export-ydpi="90" />
    <path
       sodipodi:nodetypes="csc"
       inkscape:connector-curvature="0"
       id="path4925"
       d="m 338.77289,778.61257 c -15.63464,-15.97157 -23.45204,-36.90489 -23.45204,-57.83821 0,-20.93331 7.81731,-41.86663 23.45204,-57.83821"
       style="fill:none;stroke:#f74c00;stroke-width:21.29999924;stroke-miterlimit:4;stroke-dasharray:none;stroke-opacity:1"
       inkscape:export-filename="/home/infin/work/fnorden/Logo/Logo_03.png"
       inkscape:export-xdpi="90"
       inkscape:export-ydpi="90" />
    <path
       sodipodi:nodetypes="csc"
       inkscape:connector-curvature="0"
       id="path4963"
       d="m 468.90155,816.08523 c 25.76427,-26.31936 38.64641,-60.81511 38.64641,-95.31086 1e-5,-34.49574 -12.88212,-68.99149 -38.64639,-95.31085"
       style="fill:none;stroke:#f74c00;stroke-width:21.29999924;stroke-miterlimit:4;stroke-dasharray:none;stroke-opacity:1"
       inkscape:export-filename="/home/infin/work/fnorden/Logo/Logo_03.png"
       inkscape:export-xdpi="90"
       inkscape:export-ydpi="90" />
    <path
       style="fill:none;stroke:#f74c00;stroke-width:21.29999924;stroke-miterlimit:4;stroke-dasharray:none;stroke-opacity:1"
       d="m 432.21926,778.61257 c 15.63464,-15.97157 23.45204,-36.90489 23.45204,-57.83821 0,-20.93331 -7.81731,-41.86663 -23.45204,-57.83821"
       id="path4965"
       inkscape:connector-curvature="0"
       sodipodi:nodetypes="csc"
       inkscape:export-filename="/home/infin/work/fnorden/Logo/Logo_03.png"
       inkscape:export-xdpi="90"
       inkscape:export-ydpi="90" />
  </g>
</svg>
